<?xml version="1.0" encoding="utf-8"?>
<!-- Generator: Adobe Illustrator 16.0.4, SVG Export Plug-In . SVG Version: 6.00 Build 0)  -->
<!DOCTYPE svg PUBLIC "-//W3C//DTD SVG 1.1//EN" "http://www.w3.org/Graphics/SVG/1.1/DTD/svg11.dtd">
<svg version="1.1" id="Layer_1" xmlns="http://www.w3.org/2000/svg" xmlns:xlink="http://www.w3.org/1999/xlink" x="0px" y="0px"
	 width="163.5px" height="23.234px" viewBox="0 0 163.5 23.234" enable-background="new 0 0 163.5 23.234" xml:space="preserve">
<g>
	<g>
		<polygon fill="#488EE7" points="0.567,0.311 0.567,1.387 6.033,1.387 6.033,15.992 7.197,15.992 7.197,1.387 12.664,1.387 
			12.664,0.311 		"/>
		<polygon fill="#488EE7" points="25.883,0.311 25.883,7.568 15.847,7.568 15.847,0.311 14.682,0.311 14.682,15.992 15.847,15.992 
			15.847,8.643 25.883,8.643 25.883,15.992 27.048,15.992 27.048,0.311 		"/>
		<polygon fill="#488EE7" points="29.387,0.311 29.387,15.992 40.653,15.992 40.653,14.918 30.552,14.918 30.552,8.623 
			39.534,8.623 39.534,7.547 30.552,7.547 30.552,1.387 40.542,1.387 40.542,0.311 		"/>
		<path fill="#488EE7" d="M41.796,8.195V8.151C41.796,3.584,45.313,0,50.062,0c3.202,0,5.264,1.344,6.651,3.271l-3.27,2.529
			c-0.896-1.118-1.927-1.836-3.427-1.836c-2.195,0-3.741,1.857-3.741,4.146v0.044c0,2.354,1.546,4.188,3.741,4.188
			c1.635,0,2.598-0.766,3.538-1.902l3.271,2.33c-1.479,2.039-3.472,3.539-6.944,3.539C45.402,16.302,41.796,12.879,41.796,8.195"/>
		<path fill="#488EE7" d="M65.579,7.838c1.478,0,2.329-0.718,2.329-1.858V5.933c0-1.231-0.896-1.858-2.353-1.858H62.71V7.84
			L65.579,7.838L65.579,7.838z M58.366,0.311h7.413c2.397,0,4.056,0.627,5.107,1.702c0.919,0.896,1.389,2.104,1.389,3.651V5.71
			c0,2.396-1.276,3.984-3.225,4.813l3.74,5.467h-5.018l-3.159-4.75h-0.044H62.71v4.75h-4.344V0.311z"/>
		<path fill="#488EE7" d="M80.557,8.106c1.546,0,2.486-0.808,2.486-2.039V6.023c0-1.344-0.94-2.062-2.508-2.062h-2.039v4.145H80.557
			z M74.151,0.311h6.72c3.963,0,6.52,2.038,6.52,5.51v0.046c0,3.695-2.847,5.646-6.744,5.646h-2.15v4.479h-4.345L74.151,0.311
			L74.151,0.311z"/>
		<path fill="#488EE7" d="M89.152,8.195V8.151c0-4.231,3.068-8.107,7.75-8.107c2.555,0,4.168,0.764,5.734,2.062l-0.765,0.874
			c-1.229-1.075-2.666-1.882-5.039-1.882c-3.81,0-6.474,3.226-6.474,7.012v0.044c0,4.058,2.527,7.08,6.72,7.08
			c1.994,0,3.854-0.83,4.996-1.793V8.938h-5.242V7.863h6.36v6.048c-1.409,1.257-3.604,2.354-6.159,2.354
			C92.084,16.259,89.152,12.609,89.152,8.195"/>
		<path fill="#488EE7" d="M111.938,8.442c2.621,0,4.57-1.318,4.57-3.584V4.813c0-2.104-1.658-3.428-4.502-3.428h-5.354v7.057
			H111.938z M105.488,0.311h6.588c1.93,0,3.475,0.604,4.41,1.546c0.738,0.739,1.188,1.792,1.188,2.912v0.044
			c0,2.621-1.949,4.122-4.595,4.479l5.177,6.697h-1.479l-4.994-6.497h-0.045h-5.084v6.497h-1.166V0.311z"/>
		<path fill="#488EE7" d="M133.628,8.195V8.151c0-3.875-2.821-7.057-6.696-7.057s-6.652,3.137-6.652,7.013v0.044
			c0,3.875,2.822,7.059,6.697,7.059S133.628,12.07,133.628,8.195 M119.07,8.195V8.151c0-4.276,3.156-8.107,7.904-8.107
			c4.75,0,7.863,3.784,7.863,8.063c0.021,0.021,0.021,0.021,0,0.044c0,4.279-3.158,8.108-7.908,8.108
			C122.184,16.259,119.07,12.475,119.07,8.195"/>
		<path fill="#488EE7" d="M136.637,9.473V0.311h1.165v9.05c0,3.697,1.992,5.825,5.308,5.825c3.183,0,5.222-1.929,5.222-5.712V0.311
			h1.164v9.026c0,4.5-2.619,6.898-6.429,6.898C139.302,16.238,136.637,13.863,136.637,9.473"/>
		<path fill="#488EE7" d="M157.451,9.068c2.912,0,4.883-1.521,4.883-3.854V5.172c0-2.486-1.926-3.786-4.747-3.786h-4.437v7.684
			L157.451,9.068L157.451,9.068z M151.988,0.311h5.688c3.451,0,5.823,1.771,5.823,4.794v0.044c0,3.293-2.845,4.996-6.114,4.996
			h-4.23v5.847h-1.164V0.311H151.988z"/>
	</g>
	<g>
		<polygon fill="#488EE7" points="5.871,18.909 5.871,22.702 8.713,22.702 8.713,22.107 6.538,22.107 6.538,21.09 8.44,21.09 
			8.44,20.49 6.538,20.49 6.538,19.506 8.685,19.506 8.685,18.909 		"/>
		<polygon fill="#488EE7" points="16.221,18.909 16.221,21.53 14.187,18.909 13.569,18.909 13.569,22.702 14.225,22.702 
			14.225,20.004 16.317,22.702 16.875,22.702 16.875,18.909 		"/>
		<polygon fill="#488EE7" points="21.692,18.909 21.692,19.524 22.894,19.524 22.894,22.702 23.568,22.702 23.568,19.524 
			24.771,19.524 24.771,18.909 		"/>
		<polygon fill="#488EE7" points="29.541,18.909 29.541,22.702 32.382,22.702 32.382,22.107 30.207,22.107 30.207,21.09 
			32.11,21.09 32.11,20.49 30.207,20.49 30.207,19.506 32.354,19.506 32.354,18.909 		"/>
		<g>
			<path fill="#488EE7" d="M38.881,20.791c0.477,0,0.781-0.25,0.781-0.638v-0.012c0-0.405-0.294-0.627-0.787-0.627h-0.97v1.271
				L38.881,20.791L38.881,20.791z M37.237,18.907h1.693c0.478,0,0.852,0.145,1.094,0.379c0.2,0.206,0.314,0.487,0.314,0.818v0.012
				c0,0.624-0.374,0.995-0.905,1.15l1.023,1.437h-0.785l-0.933-1.319h-0.011h-0.821v1.319h-0.668L37.237,18.907L37.237,18.907z"/>
		</g>
		<polygon fill="#488EE7" points="44.936,18.909 44.936,19.524 46.141,19.524 46.141,22.702 46.813,22.702 46.813,19.524 
			48.017,19.524 48.017,18.909 		"/>
		<path fill="#488EE7" d="M53.941,19.677l0.655,1.52h-1.308L53.941,19.677z M53.643,18.882l-1.67,3.818h0.682l0.393-0.915h1.792
			l0.386,0.916h0.703l-1.667-3.818L53.643,18.882L53.643,18.882z"/>
		<rect x="60.682" y="18.909" fill="#488EE7" width="0.667" height="3.794"/>
		<polygon fill="#488EE7" points="69.081,18.909 69.081,21.53 67.049,18.909 66.43,18.909 66.43,22.702 67.086,22.702 
			67.086,20.004 69.179,22.702 69.737,22.702 69.737,18.909 		"/>
		<polygon fill="#488EE7" points="77.799,18.909 76.645,20.702 75.49,18.909 74.781,18.909 74.781,22.702 75.435,22.702 
			75.435,19.992 76.623,21.771 76.645,21.771 77.842,19.978 77.842,22.702 78.51,22.702 78.51,18.909 		"/>
		<polygon fill="#488EE7" points="83.551,18.909 83.551,22.702 86.391,22.702 86.391,22.107 84.217,22.107 84.217,21.09 
			86.119,21.09 86.119,20.49 84.217,20.49 84.217,19.506 86.367,19.506 86.367,18.909 		"/>
		<polygon fill="#488EE7" points="93.9,18.909 93.9,21.53 91.867,18.909 91.248,18.909 91.248,22.702 91.904,22.702 91.904,20.004 
			93.996,22.702 94.555,22.702 94.555,18.909 		"/>
		<polygon fill="#488EE7" points="99.326,18.909 99.326,19.524 100.529,19.524 100.529,22.702 101.199,22.702 101.199,19.524 
			102.406,19.524 102.406,18.909 		"/>
		<g>
			<path fill="#488EE7" d="M114.281,22.096c0.801,0,1.318-0.537,1.318-1.278v-0.013c0-0.742-0.521-1.288-1.318-1.288h-0.746v2.579
				H114.281z M112.867,18.907h1.414c1.191,0,2.018,0.817,2.018,1.889v0.015c0,1.065-0.822,1.896-2.018,1.896h-1.414V18.907z"/>
		</g>
		<polygon fill="#488EE7" points="121.174,18.909 121.174,22.702 124.014,22.702 124.014,22.107 121.839,22.107 121.839,21.09 
			123.742,21.09 123.742,20.49 121.839,20.49 121.839,19.506 123.986,19.506 123.986,18.909 		"/>
		<g>
			<path fill="#488EE7" d="M128.615,22.15l0.4-0.479c0.363,0.312,0.727,0.494,1.197,0.494c0.409,0,0.672-0.188,0.672-0.479v-0.01
				c0-0.271-0.15-0.418-0.855-0.579c-0.809-0.196-1.266-0.438-1.266-1.136V19.95c0-0.65,0.545-1.101,1.297-1.101
				c0.555,0,0.991,0.166,1.377,0.475l-0.357,0.507c-0.34-0.257-0.686-0.392-1.025-0.392c-0.395,0-0.619,0.199-0.619,0.449v0.01
				c0,0.293,0.176,0.423,0.898,0.603c0.802,0.19,1.221,0.479,1.221,1.106v0.011c0,0.713-0.561,1.135-1.354,1.135
				C129.617,22.759,129.072,22.555,128.615,22.15"/>
		</g>
		<rect x="136.445" y="18.909" fill="#488EE7" width="0.666" height="3.794"/>
		<g>
			<path fill="#488EE7" d="M142.021,20.815v-0.013c0-1.062,0.812-1.963,1.957-1.963c0.662,0,1.066,0.187,1.457,0.515l-0.422,0.506
				c-0.293-0.25-0.58-0.402-1.062-0.402c-0.698,0-1.229,0.606-1.229,1.34v0.012c0,0.777,0.514,1.354,1.287,1.354
				c0.357,0,0.684-0.107,0.917-0.282V21.17h-0.97v-0.58h1.611v1.597c-0.373,0.317-0.91,0.59-1.58,0.59
				C142.805,22.766,142.021,21.922,142.021,20.815"/>
		</g>
		<polygon fill="#488EE7" points="153.156,18.909 153.156,21.53 151.125,18.909 150.505,18.909 150.505,22.702 151.162,22.702 
			151.162,20.004 153.254,22.702 153.812,22.702 153.812,18.909 		"/>
	</g>
</g>
</svg>
