<?xml version="1.0" encoding="utf-8"?>
<!-- Generator: Adobe Illustrator 16.0.4, SVG Export Plug-In . SVG Version: 6.00 Build 0) -->
<!DOCTYPE svg PUBLIC "-//W3C//DTD SVG 1.1//EN" "http://www.w3.org/Graphics/SVG/1.1/DTD/svg11.dtd">
<svg version="1.1" id="Layer_1" xmlns="http://www.w3.org/2000/svg" xmlns:xlink="http://www.w3.org/1999/xlink" x="0px" y="0px"
width="163.5px" height="23.234px" viewBox="7.401 9.203 163.5 23.234" enable-background="new 7.401 9.203 163.5 23.234"
xml:space="preserve">
<g>
<g>
<polygon fill="#FFFFFF" points="7.971,9.91 7.971,10.986 13.437,10.986 13.437,25.591 14.601,25.591 14.601,10.986 20.068,10.986
20.068,9.91 "/>
<polygon fill="#FFFFFF" points="33.287,9.91 33.287,17.167 23.251,17.167 23.251,9.91 22.086,9.91 22.086,25.591 23.251,25.591
23.251,18.242 33.287,18.242 33.287,25.591 34.452,25.591 34.452,9.91 "/>
<polygon fill="#FFFFFF" points="36.791,9.91 36.791,25.591 48.057,25.591 48.057,24.516 37.956,24.516 37.956,18.221
46.938,18.221 46.938,17.145 37.956,17.145 37.956,10.986 47.947,10.986 47.947,9.91 "/>
<path fill="#FFFFFF" d="M49.2,17.794V17.75c0-4.569,3.518-8.153,8.267-8.153c3.202,0,5.264,1.344,6.651,3.271l-3.27,2.53
c-0.896-1.119-1.927-1.836-3.427-1.836c-2.195,0-3.741,1.859-3.741,4.145v0.044c0,2.352,1.546,4.188,3.741,4.188
c1.635,0,2.598-0.764,3.538-1.903l3.271,2.33c-1.479,2.039-3.472,3.539-6.944,3.539C52.806,25.902,49.2,22.477,49.2,17.794"/>
<path fill="#FFFFFF" d="M72.983,17.436c1.478,0,2.329-0.716,2.329-1.859v-0.045c0-1.231-0.896-1.858-2.353-1.858h-2.845v3.763
L72.983,17.436L72.983,17.436z M65.77,9.91h7.413c2.397,0,4.056,0.627,5.107,1.702c0.919,0.896,1.389,2.106,1.389,3.652v0.044
c0,2.396-1.276,3.986-3.225,4.815l3.74,5.467h-5.018l-3.159-4.75h-0.044h-1.859v4.75H65.77V9.91z"/>
<path fill="#FFFFFF" d="M87.961,17.705c1.546,0,2.486-0.807,2.486-2.039v-0.044c0-1.344-0.94-2.061-2.508-2.061h-2.038v4.144
H87.961z M81.555,9.91h6.72c3.963,0,6.519,2.038,6.519,5.51v0.046c0,3.695-2.846,5.645-6.743,5.645h-2.15v4.481h-4.346V9.91z"/>
<path fill="#FFFFFF" d="M96.557,17.794V17.75c0-4.233,3.069-8.109,7.75-8.109c2.555,0,4.168,0.763,5.735,2.062l-0.765,0.874
c-1.229-1.075-2.666-1.882-5.039-1.882c-3.809,0-6.473,3.226-6.473,7.012v0.044c0,4.056,2.529,7.08,6.719,7.08
c1.994,0,3.854-0.83,4.996-1.793v-4.502h-5.242v-1.075h6.361v6.048c-1.41,1.255-3.604,2.353-6.16,2.353
C99.488,25.857,96.557,22.208,96.557,17.794"/>
<path fill="#FFFFFF" d="M119.343,18.041c2.621,0,4.57-1.32,4.57-3.584v-0.045c0-2.104-1.658-3.427-4.502-3.427h-5.354v7.056
H119.343z M112.893,9.91h6.588c1.928,0,3.473,0.605,4.41,1.546c0.739,0.739,1.188,1.792,1.188,2.912v0.044
c0,2.621-1.949,4.122-4.595,4.48l5.177,6.699h-1.479l-4.994-6.497h-0.045h-5.084v6.497h-1.166V9.91z"/>
<path fill="#FFFFFF" d="M141.032,17.794V17.75c0-3.875-2.822-7.056-6.697-7.056s-6.651,3.136-6.651,7.012v0.044
c0,3.875,2.821,7.057,6.696,7.057S141.032,21.669,141.032,17.794 M126.475,17.794V17.75c0-4.278,3.157-8.109,7.905-8.109
c4.75,0,7.863,3.786,7.863,8.065c0.021,0.021,0.021,0.021,0,0.044c0,4.279-3.158,8.109-7.908,8.109
C129.587,25.857,126.475,22.074,126.475,17.794"/>
<path fill="#FFFFFF" d="M144.04,19.072V9.91h1.166v9.05c0,3.697,1.992,5.825,5.308,5.825c3.182,0,5.221-1.928,5.221-5.712V9.91
h1.164v9.027c0,4.5-2.619,6.9-6.428,6.9C146.706,25.837,144.04,23.462,144.04,19.072"/>
<path fill="#FFFFFF" d="M164.855,18.667c2.912,0,4.883-1.522,4.883-3.853V14.77c0-2.487-1.926-3.786-4.747-3.786h-4.437v7.683
H164.855z M159.393,9.91h5.688c3.451,0,5.823,1.771,5.823,4.794v0.044c0,3.293-2.844,4.996-6.114,4.996h-4.231v5.847h-1.164V9.91
H159.393z"/>
</g>
<g>
<polygon fill="#FFFFFF" points="13.275,28.508 13.275,32.301 16.117,32.301 16.117,31.706 13.942,31.706 13.942,30.688
15.844,30.688 15.844,30.089 13.942,30.089 13.942,29.104 16.089,29.104 16.089,28.508 "/>
<polygon fill="#FFFFFF" points="23.625,28.508 23.625,31.129 21.591,28.508 20.973,28.508 20.973,32.301 21.629,32.301
21.629,29.602 23.721,32.301 24.28,32.301 24.28,28.508 "/>
<polygon fill="#FFFFFF" points="29.096,28.508 29.096,29.123 30.298,29.123 30.298,32.301 30.972,32.301 30.972,29.123
32.175,29.123 32.175,28.508 "/>
<polygon fill="#FFFFFF" points="36.945,28.508 36.945,32.301 39.786,32.301 39.786,31.706 37.611,31.706 37.611,30.688
39.514,30.688 39.514,30.089 37.611,30.089 37.611,29.104 39.758,29.104 39.758,28.508 "/>
<g>
<path fill="#FFFFFF" d="M46.285,30.389c0.477,0,0.781-0.25,0.781-0.636V29.74c0-0.405-0.294-0.627-0.787-0.627h-0.97v1.273
L46.285,30.389L46.285,30.389z M44.641,28.506h1.693c0.478,0,0.852,0.143,1.094,0.379c0.2,0.206,0.314,0.487,0.314,0.818v0.012
c0,0.624-0.374,0.995-0.905,1.15l1.023,1.437h-0.785l-0.933-1.321h-0.011H45.31v1.321h-0.668L44.641,28.506L44.641,28.506z"/>
</g>
<polygon fill="#FFFFFF" points="52.34,28.508 52.34,29.123 53.545,29.123 53.545,32.301 54.218,32.301 54.218,29.123
55.421,29.123 55.421,28.508 "/>
<path fill="#FFFFFF" d="M61.345,29.277L62,30.796h-1.308L61.345,29.277z M61.047,28.48l-1.67,3.82h0.682l0.393-0.915h1.792
l0.386,0.915h0.703l-1.667-3.82H61.047z"/>
<rect x="68.086" y="28.508" fill="#FFFFFF" width="0.667" height="3.794"/>
<polygon fill="#FFFFFF" points="76.485,28.508 76.485,31.129 74.453,28.508 73.834,28.508 73.834,32.301 74.49,32.301
74.49,29.602 76.583,32.301 77.141,32.301 77.141,28.508 "/>
<polygon fill="#FFFFFF" points="85.203,28.508 84.049,30.301 82.895,28.508 82.185,28.508 82.185,32.301 82.839,32.301
82.839,29.591 84.028,31.37 84.049,31.37 85.246,29.577 85.246,32.301 85.914,32.301 85.914,28.508 "/>
<polygon fill="#FFFFFF" points="90.955,28.508 90.955,32.301 93.794,32.301 93.794,31.706 91.621,31.706 91.621,30.688
93.523,30.688 93.523,30.089 91.621,30.089 91.621,29.104 93.771,29.104 93.771,28.508 "/>
<polygon fill="#FFFFFF" points="101.305,28.508 101.305,31.129 99.271,28.508 98.652,28.508 98.652,32.301 99.309,32.301
99.309,29.602 101.4,32.301 101.958,32.301 101.958,28.508 "/>
<polygon fill="#FFFFFF" points="106.73,28.508 106.73,29.123 107.934,29.123 107.934,32.301 108.604,32.301 108.604,29.123
109.811,29.123 109.811,28.508 "/>
<g>
<path fill="#FFFFFF" d="M121.686,31.695c0.801,0,1.318-0.537,1.318-1.278v-0.013c0-0.742-0.521-1.288-1.318-1.288h-0.746v2.579
H121.686z M120.271,28.506h1.414c1.194,0,2.018,0.817,2.018,1.887v0.014c0,1.066-0.822,1.896-2.018,1.896h-1.414V28.506z"/>
</g>
<polygon fill="#FFFFFF" points="128.578,28.508 128.578,32.301 131.417,32.301 131.417,31.706 129.243,31.706 129.243,30.688
131.146,30.688 131.146,30.089 129.243,30.089 129.243,29.104 131.391,29.104 131.391,28.508 "/>
<g>
<path fill="#FFFFFF" d="M136.02,31.749l0.4-0.479c0.364,0.314,0.727,0.494,1.198,0.494c0.409,0,0.672-0.189,0.672-0.479v-0.009
c0-0.272-0.151-0.418-0.856-0.58c-0.809-0.196-1.266-0.438-1.266-1.135v-0.01c0-0.652,0.545-1.101,1.298-1.101
c0.554,0,0.991,0.166,1.377,0.475l-0.358,0.505c-0.34-0.255-0.685-0.39-1.027-0.39c-0.393,0-0.619,0.199-0.619,0.449v0.01
c0,0.293,0.174,0.423,0.9,0.601c0.8,0.192,1.219,0.48,1.219,1.108v0.011c0,0.711-0.559,1.133-1.355,1.133
C137.021,32.357,136.477,32.154,136.02,31.749"/>
</g>
<rect x="143.85" y="28.508" fill="#FFFFFF" width="0.666" height="3.794"/>
<g>
<path fill="#FFFFFF" d="M149.425,30.414v-0.012c0-1.062,0.813-1.963,1.957-1.963c0.663,0,1.067,0.186,1.458,0.514l-0.423,0.506
c-0.292-0.25-0.579-0.404-1.062-0.404c-0.698,0-1.229,0.608-1.229,1.34v0.011c0,0.778,0.515,1.354,1.288,1.354
c0.357,0,0.684-0.11,0.917-0.284v-0.711h-0.97v-0.58h1.611v1.596c-0.373,0.318-0.91,0.59-1.58,0.59
C150.208,32.365,149.425,31.52,149.425,30.414"/>
</g>
<polygon fill="#FFFFFF" points="160.561,28.508 160.561,31.129 158.529,28.508 157.909,28.508 157.909,32.301 158.566,32.301
158.566,29.602 160.658,32.301 161.217,32.301 161.217,28.508 "/>
</g>
</g>
</svg>