<?xml version="1.0" encoding="utf-8"?>
<!-- Generator: Adobe Illustrator 16.0.4, SVG Export Plug-In . SVG Version: 6.00 Build 0)  -->
<!DOCTYPE svg PUBLIC "-//W3C//DTD SVG 1.1//EN" "http://www.w3.org/Graphics/SVG/1.1/DTD/svg11.dtd">
<svg version="1.1" id="Layer_1" xmlns="http://www.w3.org/2000/svg" xmlns:xlink="http://www.w3.org/1999/xlink" x="0px" y="0px"
	 width="163.5px" height="23.234px" viewBox="0 0 163.5 23.234" enable-background="new 0 0 163.5 23.234" xml:space="preserve">
<g>
	<g>
		<polygon fill="#3D6B9D" points="0.567,0.311 0.567,1.387 6.033,1.387 6.033,15.992 7.197,15.992 7.197,1.387 12.664,1.387 
			12.664,0.311 		"/>
		<polygon fill="#3D6B9D" points="25.883,0.311 25.883,7.568 15.847,7.568 15.847,0.311 14.682,0.311 14.682,15.992 15.847,15.992 
			15.847,8.643 25.883,8.643 25.883,15.992 27.048,15.992 27.048,0.311 		"/>
		<polygon fill="#3D6B9D" points="29.387,0.311 29.387,15.992 40.653,15.992 40.653,14.918 30.552,14.918 30.552,8.623 
			39.534,8.623 39.534,7.547 30.552,7.547 30.552,1.387 40.542,1.387 40.542,0.311 		"/>
		<path fill="#3D6B9D" d="M41.796,8.195V8.151C41.796,3.584,45.313,0,50.062,0c3.202,0,5.264,1.344,6.651,3.271L53.443,5.8
			c-0.896-1.117-1.927-1.836-3.427-1.836c-2.195,0-3.741,1.857-3.741,4.146v0.044c0,2.354,1.546,4.188,3.741,4.188
			c1.635,0,2.598-0.766,3.538-1.901l3.271,2.33c-1.479,2.039-3.472,3.539-6.944,3.539C45.402,16.302,41.796,12.879,41.796,8.195"/>
		<path fill="#3D6B9D" d="M65.579,7.838c1.478,0,2.329-0.718,2.329-1.857V5.933c0-1.231-0.896-1.858-2.353-1.858H62.71V7.84
			L65.579,7.838L65.579,7.838z M58.366,0.311h7.413c2.397,0,4.056,0.627,5.107,1.702c0.919,0.896,1.389,2.104,1.389,3.65V5.71
			c0,2.396-1.276,3.984-3.225,4.813l3.74,5.467h-5.018l-3.159-4.75h-0.044H62.71v4.75h-4.344V0.311z"/>
		<path fill="#3D6B9D" d="M80.557,8.106c1.546,0,2.486-0.809,2.486-2.039V6.023c0-1.344-0.94-2.062-2.508-2.062h-2.039v4.146H80.557
			z M74.151,0.311h6.72c3.963,0,6.52,2.038,6.52,5.51v0.046c0,3.695-2.847,5.646-6.744,5.646h-2.15v4.479h-4.345L74.151,0.311
			L74.151,0.311z"/>
		<path fill="#3D6B9D" d="M89.152,8.195V8.151c0-4.231,3.068-8.107,7.75-8.107c2.555,0,4.168,0.765,5.734,2.062l-0.766,0.874
			c-1.229-1.075-2.666-1.882-5.039-1.882c-3.811,0-6.475,3.226-6.475,7.012v0.044c0,4.058,2.527,7.08,6.721,7.08
			c1.994,0,3.854-0.83,4.996-1.793V8.938h-5.242V7.863h6.359v6.048c-1.408,1.257-3.604,2.354-6.158,2.354
			C92.084,16.259,89.152,12.609,89.152,8.195"/>
		<path fill="#3D6B9D" d="M111.938,8.442c2.621,0,4.57-1.318,4.57-3.584V4.813c0-2.104-1.658-3.429-4.502-3.429h-5.354v7.058
			H111.938z M105.488,0.311h6.588c1.93,0,3.475,0.604,4.41,1.546c0.738,0.739,1.188,1.792,1.188,2.912v0.044
			c0,2.621-1.949,4.122-4.595,4.479l5.177,6.697h-1.479l-4.994-6.497h-0.045h-5.084v6.497h-1.166V0.311z"/>
		<path fill="#3D6B9D" d="M133.628,8.195V8.151c0-3.875-2.821-7.058-6.696-7.058s-6.652,3.138-6.652,7.014v0.044
			c0,3.875,2.822,7.059,6.697,7.059S133.628,12.07,133.628,8.195 M119.07,8.195V8.151c0-4.276,3.156-8.107,7.904-8.107
			c4.75,0,7.862,3.784,7.862,8.063c0.021,0.021,0.021,0.021,0,0.044c0,4.279-3.157,8.107-7.907,8.107
			C122.184,16.259,119.07,12.475,119.07,8.195"/>
		<path fill="#3D6B9D" d="M136.637,9.473V0.311h1.165v9.05c0,3.697,1.992,5.825,5.308,5.825c3.184,0,5.223-1.93,5.223-5.712V0.311
			h1.164v9.025c0,4.5-2.619,6.898-6.43,6.898C139.302,16.238,136.637,13.863,136.637,9.473"/>
		<path fill="#3D6B9D" d="M157.451,9.068c2.912,0,4.883-1.521,4.883-3.854V5.172c0-2.485-1.926-3.786-4.747-3.786h-4.437V9.07
			L157.451,9.068L157.451,9.068z M151.988,0.311h5.688c3.451,0,5.823,1.771,5.823,4.794v0.044c0,3.293-2.845,4.996-6.114,4.996
			h-4.23v5.847h-1.163V0.311H151.988z"/>
	</g>
</g>
</svg>
